<svg xmlns="http://www.w3.org/2000/svg" viewBox="0 0 512 512">
  <defs>
    <linearGradient id="bgGrad" x1="0%" y1="0%" x2="100%" y2="100%">
      <stop offset="0%" style="stop-color:#6366f1"/>
      <stop offset="100%" style="stop-color:#4f46e5"/>
    </linearGradient>
  </defs>
  <!-- Background -->
  <rect width="512" height="512" rx="96" fill="url(#bgGrad)"/>
  <!-- BPMN Pool/Lane representation -->
  <rect x="60" y="100" width="392" height="312" rx="12" fill="none" stroke="#fff" stroke-width="8"/>
  <line x1="60" y1="180" x2="452" y2="180" stroke="#fff" stroke-width="4"/>
  <!-- Start Event -->
  <circle cx="130" cy="256" r="24" fill="none" stroke="#fff" stroke-width="6"/>
  <!-- Task -->
  <rect x="200" y="220" width="112" height="72" rx="8" fill="#fff" fill-opacity="0.2" stroke="#fff" stroke-width="5"/>
  <!-- Data Object -->
  <path d="M240 320 L240 380 L290 380 L290 335 L275 320 Z" fill="#fff" fill-opacity="0.3" stroke="#fff" stroke-width="4"/>
  <path d="M275 320 L275 335 L290 335" fill="none" stroke="#fff" stroke-width="3"/>
  <!-- End Event -->
  <circle cx="382" cy="256" r="24" fill="none" stroke="#fff" stroke-width="6"/>
  <circle cx="382" cy="256" r="16" fill="#fff"/>
  <!-- Arrows -->
  <line x1="154" y1="256" x2="195" y2="256" stroke="#fff" stroke-width="5"/>
  <polygon points="195,250 195,262 207,256" fill="#fff"/>
  <line x1="317" y1="256" x2="352" y2="256" stroke="#fff" stroke-width="5"/>
  <polygon points="352,250 352,262 364,256" fill="#fff"/>
  <!-- IDM Text -->
  <text x="256" y="460" text-anchor="middle" fill="#fff" font-family="Arial, sans-serif" font-size="48" font-weight="bold">IDM</text>
</svg>
